<svg width="142" height="52" viewBox="0 0 142 52" fill="none" xmlns="http://www.w3.org/2000/svg">
<path d="M17 11.125C10.9027 11.125 6.375 15.9355 6.375 22.0952C6.375 23.4559 6.70381 23.875 8.5 23.875H12.75C13.8127 23.875 13.8384 23.7241 14.4461 22.8125C15.5828 21.1074 17.3569 18.4463 17.3569 18.4463C17.751 17.8551 18.4145 17.5 19.125 17.5C19.8355 17.5 20.499 17.8551 20.8931 18.4463C20.8931 18.4463 24.4413 23.7685 26.7148 27.1787C27.3456 28.125 27.8133 28.2616 28.5352 27.1787C29.1159 26.3077 30.1069 24.8213 30.1069 24.8213C30.501 24.2301 31.1645 23.875 31.875 23.875H36.125C37.2986 23.875 38.25 24.8264 38.25 26C38.25 27.1736 37.2986 28.125 36.125 28.125H33.0123L29.3931 33.5537C28.999 34.1449 28.3355 34.5 27.625 34.5C26.9145 34.5 26.251 34.1449 25.8569 33.5537C25.8569 33.5537 20.7334 25.8685 20.1153 24.9414C19.4044 23.875 18.8285 23.9006 18.2148 24.8213C17.601 25.7419 16.6431 27.1787 16.6431 27.1787C16.249 27.7699 15.5855 28.125 14.875 28.125H9.5625C8.5 28.125 7.67712 28.4299 8.78519 30.25C12.158 35.7902 18.4806 39.9678 23.8913 42.6245C24.9109 43.1252 26.0891 43.1252 27.1087 42.6245C34.9173 38.7905 44.625 31.7886 44.625 22.0952C44.625 15.9355 40.0973 11.125 34 11.125C29.9011 11.125 27.1068 13.4664 25.5 15.5144C23.8932 13.4664 21.099 11.125 17 11.125Z" fill="#7D2EFF"/>
<path d="M57.375 16.4066H71.5783V20.3815H66.8438V35.0685H62.1094V20.3815H57.375V16.4066Z" fill="white"/>
<path d="M86.811 16.4066H92.1862L80.8663 41.3003H75.7759L79.4068 33.3168L72.1806 16.4066H77.5558L82.0766 28.365L86.811 16.4066Z" fill="white"/>
<path d="M107.183 29.005H112.523C111.74 31.0486 110.506 32.6768 108.821 33.8895C107.159 35.0797 105.142 35.6748 102.769 35.6748C99.6366 35.6748 97.038 34.7316 94.9734 32.8452C92.9087 30.9588 91.8764 28.5447 91.8764 25.6028C91.8764 22.8181 92.885 20.4938 94.9022 18.6299C96.9431 16.7435 99.5061 15.8003 102.591 15.8003C105.035 15.8003 107.136 16.4179 108.892 17.653C110.648 18.8881 111.858 20.5387 112.523 22.6048H107.183C106.709 21.7739 106.068 21.1451 105.261 20.7184C104.478 20.2917 103.564 20.0671 102.52 20.0447C100.693 20.0447 99.245 20.5949 98.1771 21.6953C97.1329 22.7732 96.6108 24.0982 96.6108 25.6702C96.6108 27.332 97.1448 28.7131 98.2127 29.8135C99.3043 30.9139 100.74 31.4529 102.52 31.4304C103.517 31.4304 104.418 31.2395 105.225 30.8578C106.056 30.4535 106.709 29.836 107.183 29.005Z" fill="white"/>
<path d="M135.15 16.4066V35.0685H130.807V32.542H130.736C129.905 33.5975 128.909 34.3835 127.746 34.9C126.607 35.3941 125.408 35.6523 124.15 35.6748C121.516 35.6748 119.25 34.7765 117.351 32.9799C115.453 31.1834 114.504 28.8254 114.504 25.906C114.504 23.009 115.441 20.6061 117.316 18.6973C119.214 16.7659 121.54 15.8003 124.293 15.8003C125.669 15.8003 126.903 16.081 127.995 16.6424C129.11 17.1814 130.024 17.9786 130.736 19.0341H130.807V16.4066H135.15ZM125.04 20.0447C123.332 20.0447 121.932 20.6061 120.84 21.729C119.772 22.8294 119.238 24.2217 119.238 25.906C119.214 27.5229 119.736 28.8478 120.804 29.8809C121.896 30.9139 123.308 31.4304 125.04 31.4304C126.725 31.4304 128.09 30.9027 129.134 29.8472C130.178 28.7917 130.7 27.4106 130.7 25.7039C130.7 24.087 130.178 22.7395 129.134 21.6616C128.09 20.5836 126.725 20.0447 125.04 20.0447Z" fill="white"/>
</svg>
