<svg width="24" height="24" viewBox="0 0 24 24" fill="none" xmlns="http://www.w3.org/2000/svg">
<path d="M9 5.14949V5C9 3.34315 10.3431 2 12 2C13.6569 2 15 3.34315 15 5V5.14949C19.0384 5.65166 20 7.56341 20 13C20 19.588 18.588 21 12 21C5.412 21 4 19.588 4 13C4 7.56341 4.96157 5.65166 9 5.14949ZM11 5V5.01234C11.3193 5.00393 11.6524 5 12 5C12.3476 5 12.6807 5.00393 13 5.01234V5C13 4.44772 12.5523 4 12 4C11.4477 4 11 4.44772 11 5ZM12 7C10.2 7 9 8.2 9 10C9 11.8 10.2 13 12 13C13.8 13 15 11.8 15 10C15 8.2 13.8 7 12 7ZM9.18751 14C8.5625 13.9977 7 15.7857 7 16.5C7 17.2143 8.5625 19 11.9946 19C15.4266 19 17 17.2143 17 16.5C17 15.7857 15.4375 14 14.8125 14C14.4242 14 14.1967 14.1226 13.9302 14.2661C13.5533 14.4692 13.0983 14.7143 12 14.7143C10.9001 14.7143 10.4454 14.4697 10.0682 14.2667C9.80238 14.1238 9.57504 14.0015 9.18751 14Z" fill="white" fill-opacity="0.9"/>
</svg>
