<svg width="24" height="24" viewBox="0 0 24 24" fill="none" xmlns="http://www.w3.org/2000/svg">
<path d="M7 5C4.79105 5 3 6.7921 3 9C3 12.5522 5.21773 15.2956 7.62114 17.2193C8.80965 18.1706 10.0038 18.8879 10.9037 19.3675C11.3619 19.6118 11.7406 19.7928 11.9986 19.91C12.2563 19.7926 12.6343 19.6117 13.0919 19.3676C13.9915 18.8879 15.1861 18.1705 16.3753 17.2191C18.7802 15.2952 21 12.5518 21 9C21 6.7921 19.209 5 17 5C15.0429 5 13.3482 6.39635 12.9798 8.20012C12.8847 8.66565 12.4751 9 12 9C11.5249 9 11.1153 8.66565 11.0202 8.20012C10.6518 6.39635 8.95714 5 7 5ZM12 22C11.6837 21.9795 11.4395 21.8532 11.1525 21.7224C10.8619 21.5898 10.4521 21.3932 9.96288 21.1325C8.98679 20.6121 7.6816 19.8294 6.37136 18.7807C3.77727 16.7044 1 13.4478 1 9C1 5.6879 3.68611 3 7 3C9.02621 3 10.8814 4.0088 12 5.56792C13.1186 4.0088 14.9738 3 17 3C20.3139 3 23 5.6879 23 9C23 13.4482 20.2198 16.7048 17.6247 18.7809C16.3139 19.8295 15.0085 20.6121 14.0331 21.1324C13.5442 21.3931 13.1351 21.5896 12.8454 21.722C12.3017 21.9706 12.1129 22 12 22Z" fill="#DBDBDB" fill-opacity="0.75"/>
</svg>
