<svg width="16" height="20" viewBox="0 0 16 20" fill="none" xmlns="http://www.w3.org/2000/svg">
<path d="M8 3.33301C1.82375 3.33301 0.5 3.82342 0.5 9.99967C0.5 16.1759 1.82375 16.6663 8 16.6663C11.75 16.6663 13.403 16.4565 14.1317 14.583C14.4559 13.7497 14.2617 13.333 13 13.333H9.66667C7.82572 13.333 6.33333 11.8406 6.33333 9.99967C6.33333 8.15873 7.82572 6.66634 9.66667 6.66634H13C14.2617 6.66634 14.4559 6.24967 14.1317 5.41634C13.403 3.54282 11.75 3.33301 8 3.33301Z" fill="#8D8D8D"/>
<path d="M9.66667 7.49967H13.8333C14.6667 7.49967 15.5 7.91634 15.5 9.99967C15.5 12.083 14.6667 12.4997 13.8333 12.4997H9.66667C8.28595 12.4997 7.16667 11.3804 7.16667 9.99967C7.16667 8.61896 8.28595 7.49967 9.66667 7.49967ZM10.5 9.99967C10.5 9.53944 10.1269 9.16634 9.66667 9.16634C9.20643 9.16634 8.83333 9.53944 8.83333 9.99967C8.83333 10.4599 9.20643 10.833 9.66667 10.833C10.1269 10.833 10.5 10.4599 10.5 9.99967Z" fill="#8D8D8D"/>
</svg>
