<svg width="34" height="34" viewBox="0 0 34 34" fill="none" xmlns="http://www.w3.org/2000/svg">
<path d="M18.291 12.7498C17.7868 15.4338 15.7904 16.9998 12.75 16.9998C9.7096 16.9998 7.71324 15.4338 7.20903 12.7498H5.66667C4.88426 12.7498 4.25 12.1156 4.25 11.3332C4.25 10.5508 4.88426 9.9165 5.66667 9.9165H7.20903C7.71324 7.23255 9.7096 5.6665 12.75 5.6665C15.7904 5.6665 17.7868 7.23255 18.291 9.9165H28.3333C29.1157 9.9165 29.75 10.5508 29.75 11.3332C29.75 12.1156 29.1157 12.7498 28.3333 12.7498H18.291Z" fill="#C0C0C0"/>
<path d="M21.25 28.3332C24.2904 28.3332 26.2868 26.7671 26.791 24.0832H28.3333C29.1157 24.0832 29.75 23.4489 29.75 22.6665C29.75 21.8841 29.1157 21.2498 28.3333 21.2498H26.791C26.2868 18.5659 24.2904 16.9998 21.25 16.9998C17.7083 16.9998 15.5833 19.1248 15.5833 22.6665C15.5833 26.2082 17.7083 28.3332 21.25 28.3332Z" fill="#C0C0C0"/>
<path d="M4.25 22.6665C4.25 21.8841 4.88426 21.2498 5.66667 21.2498H12.75C13.5324 21.2498 14.1667 21.8841 14.1667 22.6665C14.1667 23.4489 13.5324 24.0832 12.75 24.0832H5.66667C4.88426 24.0832 4.25 23.4489 4.25 22.6665Z" fill="#C0C0C0"/>
</svg>
