<svg width="34" height="34" viewBox="0 0 34 34" fill="none" xmlns="http://www.w3.org/2000/svg">
<path d="M25.3475 21.3405C26.3445 19.6532 26.9167 17.6851 26.9167 15.5833C26.9167 9.32411 21.8426 4.25 15.5833 4.25C9.32411 4.25 4.25 9.32411 4.25 15.5833C4.25 21.8426 9.32411 26.9167 15.5833 26.9167C17.6851 26.9167 19.6533 26.3445 21.3406 25.3475L24.9133 28.9201C26.0198 30.0266 27.8137 30.0266 28.9202 28.9201C30.0267 27.8136 30.0267 26.0197 28.9202 24.9132L25.3475 21.3405ZM15.5833 22.6667C11.6713 22.6667 8.5 19.4953 8.5 15.5833C8.5 11.6713 11.6713 8.5 15.5833 8.5C19.4953 8.5 22.6667 11.6713 22.6667 15.5833C22.6667 19.4953 19.4953 22.6667 15.5833 22.6667Z" fill="white"/>
</svg>
