<svg width="44" height="44" viewBox="0 0 44 44" fill="none" xmlns="http://www.w3.org/2000/svg">
<path d="M21.9999 27.5005C28.075 27.5005 32.9999 22.5756 32.9999 16.5005C32.9999 10.4254 28.075 5.50049 21.9999 5.50049C15.9248 5.50049 10.9999 10.4254 10.9999 16.5005C10.9999 22.5756 15.9248 27.5005 21.9999 27.5005Z" fill="white" fill-opacity="0.75"/>
<path d="M27.0316 37.682L22.2029 29.3319C26.1557 29.2706 29.6748 27.4223 31.9878 24.5591C33.1102 23.1698 33.5104 23.8198 33.9515 24.5363L33.9656 24.5591C34.2816 25.0723 34.5175 25.4554 34.6348 25.6583L38.0732 31.6058C39.0614 33.3151 38.1861 33.8758 36.9488 33.8162L34.4379 33.6897C34.1745 33.6765 33.9405 33.6614 33.7307 33.6479C32.1463 33.5457 31.9463 33.5329 30.969 35.0669L29.5258 37.3323C28.6333 38.7333 27.6207 38.7006 27.0316 37.682Z" fill="white" fill-opacity="0.75"/>
<path d="M9.89349 25.1071L10.2173 24.5544C10.6404 23.8312 10.9695 23.2688 12.012 24.5591C14.3645 27.4712 17.9647 29.3335 21.9999 29.3335L22.0047 29.3335C21.3811 30.4427 17.9693 36.4995 17.1741 37.682C16.3946 38.8409 15.5532 38.7032 14.9026 37.682L13.2367 35.0669C12.2677 33.5459 11.9891 33.5621 10.3091 33.6598C10.1433 33.6694 9.96296 33.6799 9.76781 33.6897L7.25684 33.8162C6.01981 33.8758 4.92757 33.6897 5.83473 32.1209L9.57122 25.6583C9.6415 25.5367 9.75166 25.3489 9.89349 25.1071Z" fill="white" fill-opacity="0.75"/>
</svg>
