<svg width="44" height="44" viewBox="0 0 44 44" fill="none" xmlns="http://www.w3.org/2000/svg">
<path d="M22 7.3335C8.41225 7.3335 5.5 8.41241 5.5 22.0002C5.5 35.5879 8.41225 36.6668 22 36.6668C30.25 36.6668 33.8867 36.2052 35.4898 32.0835C36.2029 30.2502 35.7757 29.3335 33 29.3335H25.6667C21.6166 29.3335 18.3333 26.0503 18.3333 22.0002C18.3333 17.9501 21.6166 14.6668 25.6667 14.6668H33C35.7757 14.6668 36.2029 13.7502 35.4898 11.9168C33.8867 7.79509 30.25 7.3335 22 7.3335Z" fill="white" fill-opacity="0.75"/>
<path d="M25.6667 16.5002H34.8333C36.6667 16.5002 38.5 17.4168 38.5 22.0002C38.5 26.5835 36.6667 27.5002 34.8333 27.5002H25.6667C22.6291 27.5002 20.1667 25.0377 20.1667 22.0002C20.1667 18.9626 22.6291 16.5002 25.6667 16.5002ZM27.5 22.0002C27.5 20.9876 26.6792 20.1668 25.6667 20.1668C24.6541 20.1668 23.8333 20.9876 23.8333 22.0002C23.8333 23.0127 24.6541 23.8335 25.6667 23.8335C26.6792 23.8335 27.5 23.0127 27.5 22.0002Z" fill="white" fill-opacity="0.75"/>
</svg>
