<svg width="16" height="20" viewBox="0 0 16 20" fill="none" xmlns="http://www.w3.org/2000/svg">
<path d="M10.4 5.4375C10.4 6.78369 9.3255 7.875 8.00001 7.875C6.67453 7.875 5.60001 6.78369 5.60001 5.4375C5.60001 4.09131 6.67453 3 8.00001 3C9.3255 3 10.4 4.09131 10.4 5.4375Z" fill="#8D8D8D"/>
<path d="M4.80001 7.875C4.80001 8.77246 4.08366 9.5 3.20001 9.5C2.31635 9.5 1.6 8.77246 1.6 7.875C1.6 6.97754 2.31635 6.25 3.20001 6.25C4.08366 6.25 4.80001 6.97754 4.80001 7.875Z" fill="#8D8D8D"/>
<path d="M14.4 7.875C14.4 8.77246 13.6837 9.5 12.8 9.5C11.9164 9.5 11.2 8.77246 11.2 7.875C11.2 6.97754 11.9164 6.25 12.8 6.25C13.6837 6.25 14.4 6.97754 14.4 7.875Z" fill="#8D8D8D"/>
<path d="M3.90334 15.1875C3.92599 14.9686 3.95714 14.6999 4.00001 14.375C4.06855 13.8554 4.10559 13.5625 3.71054 13.5625C3.44309 13.5625 3.26045 13.8522 3.19301 14.375C3.15829 14.6442 3.12228 14.9155 3.09421 15.1875C3.03872 15.7252 2.8 16 2.4 15.9995L1.59625 16C0.795619 16 -0.172416 15.8598 0.0262657 14.375C0.348002 11.9706 1.01859 10.3125 3.59781 10.3125H4.52466C4.95012 9.29037 5.80728 8.6875 8.00001 8.6875C9.78161 8.6875 10.6815 9.08549 11.1846 9.78298C11.3006 9.94394 11.3956 10.1209 11.4754 10.3125C12.0448 11.6805 12.2335 13.7555 12.3397 15.1875C12.4 16 12 16 11.6 16L4.40001 16C3.80626 16 3.86437 15.5642 3.90334 15.1875Z" fill="#8D8D8D"/>
<path d="M14.4038 16C15.2044 16 16.1724 15.8595 15.9737 14.3717C15.6881 12.2326 15.1274 10.6831 13.2 10.3625C12.4 10.2294 12.3358 10.3243 12.541 11.1152C12.8306 12.4525 13.0132 13.855 13.146 15.2066C13.184 15.5929 13.2 16 14 16H14.4038Z" fill="#8D8D8D"/>
</svg>
