<svg width="12" height="12" viewBox="0 0 12 12" fill="none" xmlns="http://www.w3.org/2000/svg">
<path d="M6.00002 8C8.20916 8 10 6.20914 10 4C10 1.79086 8.20916 0 6.00002 0C3.79088 0 2.00002 1.79086 2.00002 4C2.00002 6.20914 3.79088 8 6.00002 8Z" fill="white" fill-opacity="0.9"/>
<path d="M7.82974 11.7024L6.07383 8.66598C7.51121 8.64369 8.79088 7.97155 9.632 6.93042C10.0401 6.42522 10.1857 6.66157 10.3461 6.92213L10.3512 6.93042C10.4661 7.11702 10.5519 7.25633 10.5945 7.33011L11.8449 9.49284C12.2042 10.1144 11.8859 10.3183 11.436 10.2966L10.5229 10.2506C10.4272 10.2458 10.342 10.2403 10.2658 10.2354C9.68964 10.1983 9.61689 10.1936 9.26151 10.7514L8.73673 11.5752C8.41217 12.0847 8.04395 12.0728 7.82974 11.7024Z" fill="white" fill-opacity="0.9"/>
<path d="M1.59769 7.12966L1.71544 6.92871C1.86931 6.6657 1.98896 6.46119 2.36804 6.93042C3.22353 7.98934 4.53269 8.66655 6.00002 8.66655L6.00179 8.66655C5.775 9.06988 4.53435 11.2724 4.24517 11.7024C3.96175 12.1238 3.65577 12.0737 3.4192 11.7024L2.8134 10.7514C2.46104 10.1983 2.35974 10.2042 1.74883 10.2397C1.68853 10.2432 1.62296 10.2471 1.55199 10.2506L0.638914 10.2966C0.189082 10.3183 -0.208096 10.2506 0.121781 9.68016L1.4805 7.33011C1.50606 7.28591 1.54612 7.2176 1.59769 7.12966Z" fill="white" fill-opacity="0.9"/>
</svg>
