<svg width="44" height="44" viewBox="0 0 44 44" fill="none" xmlns="http://www.w3.org/2000/svg">
<path d="M20.0738 7.33333C19.8509 5.5 19.0909 5.5 16.4997 5.5C13.9085 5.5 13.1484 5.5 12.9255 7.33333C12.7042 9.15361 12.933 9.16667 14.6663 9.16667H18.333C20.0664 9.16667 20.2952 9.15361 20.0738 7.33333Z" fill="white" fill-opacity="0.75"/>
<path d="M7.33302 27.5C7.33302 26.8591 7.3567 26.2838 7.33301 25.6667C7.333 23.8333 8.24967 23.8333 10.083 23.8333H21.083C21.5893 23.8333 21.9997 23.4229 21.9997 22.9167C21.9997 22.4104 21.5893 22 21.083 22H10.083C8.24967 22 8.0803 21.6379 8.98195 20.1667C9.52698 19.2773 10.2021 18.5569 10.9997 17.9977C12.3483 17.0521 12.833 17.3082 12.833 15.5833C12.833 15.5833 12.833 13.9073 12.833 12.8333C12.833 11 12.833 11 14.6663 11C16.0983 11 16.9011 11 18.333 11C20.1663 11 20.1663 11 20.1663 12.8333C20.1663 13.8513 20.1663 15.4401 20.1663 15.4401C20.1663 17.2626 20.5809 17.0029 21.9997 17.9977C24.3773 19.6647 25.6663 22.7643 25.6663 27.5C25.6663 36.5585 25.6663 38.5 16.4997 38.5C7.33302 38.5 7.33302 36.5585 7.33302 27.5Z" fill="white" fill-opacity="0.75"/>
<path d="M40.2241 16.5001C40.5452 12.8334 40.2241 12.8333 33.9163 12.8333C27.6086 12.8333 27.2875 12.8334 27.6086 16.5001C27.6349 16.8013 27.6613 17.1138 27.6884 17.4352C28.1035 22.3521 30.5261 29.3333 33.9163 29.3333C37.3066 29.3333 39.7291 22.3536 40.1441 17.4367C40.1713 17.1148 40.1977 16.8017 40.2241 16.5001Z" fill="white" fill-opacity="0.75"/>
<path d="M33.9163 38.5C36.4477 38.5 38.4997 37.6792 38.4997 36.6667C38.4997 35.9149 37.3684 35.2688 35.7497 34.9859C34.833 34.8257 34.833 34.2421 34.833 33V32.0833C34.833 31.5771 34.4226 31.1667 33.9163 31.1667C33.4101 31.1667 32.9997 31.5771 32.9997 32.0833V33C32.9997 34.2421 32.9997 34.8257 32.083 34.9859C30.4643 35.2688 29.333 35.9149 29.333 36.6667C29.333 37.6792 31.385 38.5 33.9163 38.5Z" fill="white" fill-opacity="0.75"/>
</svg>
