<svg width="44" height="44" viewBox="0 0 44 44" fill="none" xmlns="http://www.w3.org/2000/svg">
<path d="M20.1667 11C22.1358 11 24.3694 11.5288 26.5833 12.4088C27.5233 12.7825 27.9297 13.0195 26.9162 13.9541L25.9352 14.9352C25.5772 15.2931 25.5772 15.8735 25.9352 16.2315C26.2931 16.5895 26.8735 16.5895 27.2315 16.2315L28.8518 14.6112C29.549 13.9131 29.6348 13.8272 30.533 14.3619C31.3773 14.8645 31.1667 15.2539 30.5225 15.8478L29.6018 16.7685C29.2438 17.1265 29.2438 17.7069 29.6018 18.0648C29.9598 18.4228 30.5402 18.4228 30.8982 18.0648L31.9348 17.0283C32.4451 16.518 33.2619 16.1658 34.2616 17.0283C36.7867 19.2065 38.5 21.6627 38.5 23.8333L38.5 24.75C38.5 26.7035 37.6551 27.5 35.75 27.5H14.6667C12.972 27.5 12.8471 27.0319 12.5574 25.9457C12.5337 25.8569 12.5089 25.7639 12.4821 25.6667C12.1269 24.3811 11.5036 23.2697 10.6169 22.3831C9.73028 21.4964 8.6189 20.8731 7.33334 20.5179C7.20018 20.4811 7.07666 20.448 6.96208 20.4172C5.59798 20.0506 5.50124 20.0246 5.50126 18.3333C5.5 14.6563 6.44136 14.6132 8.42292 14.6563C8.65237 14.6613 8.89983 14.6667 9.16672 14.6667C10.2128 14.6667 10.5374 15.3239 10.9118 16.0818C11.4217 17.1142 12.0238 18.3333 14.6667 18.3333C17.688 18.3333 17.9325 16.1204 18.1529 14.1259C18.3337 12.4895 18.4983 11 20.1667 11Z" fill="white" fill-opacity="0.75"/>
<path d="M9.32057 23.6794C9.84925 24.2081 10.2711 24.8705 10.5598 25.6667C11 26.8809 10.8719 27.5 9.16672 27.5H8.25001C6.42676 27.5 5.49856 26.5736 5.5 24.75C5.50025 24.4348 5.50064 24.1293 5.50124 23.8333C5.5 22 6.11914 22 7.33334 22.4402C8.12953 22.7289 8.7919 23.1508 9.32057 23.6794Z" fill="white" fill-opacity="0.75"/>
<path d="M36.6667 29.3333H7.33334C6.41667 29.3333 5.95834 29.3333 5.72917 29.5625C5.5 29.7917 5.5 30.25 5.5 31.1667C5.5 33 7.33334 33 9.16667 33H34.8333C36.6667 33 38.5 33 38.5 31.1667C38.5 30.25 38.5 29.7917 38.2708 29.5625C38.0417 29.3333 37.5833 29.3333 36.6667 29.3333Z" fill="white" fill-opacity="0.75"/>
</svg>
