<svg width="44" height="44" viewBox="0 0 44 44" fill="none" xmlns="http://www.w3.org/2000/svg">
<path d="M16.5 13.7502C16.5 10.2063 19.3729 7.3335 22.9167 7.3335C26.4605 7.3335 29.3334 10.2063 29.3334 13.7502V15.5835C29.3334 17.2267 28.7157 18.7257 27.6999 19.8608C29.7983 21.3565 31.1667 23.8102 31.1667 26.5835V28.4168C31.1667 32.9732 27.473 36.6668 22.9167 36.6668C18.3603 36.6668 14.6667 32.9732 14.6667 28.4168V26.5835C14.6667 23.8102 16.0351 21.3565 18.1335 19.8608C17.1177 18.7256 16.5 17.2267 16.5 15.5835V13.7502ZM22.9167 12.8335C22.4104 12.8335 22 13.2439 22 13.7502V15.5835C22 16.0898 22.4104 16.5002 22.9167 16.5002C23.4229 16.5002 23.8334 16.0898 23.8334 15.5835V13.7502C23.8334 13.2439 23.4229 12.8335 22.9167 12.8335ZM20.1667 26.5835V28.4168C20.1667 29.9356 21.3979 31.1668 22.9167 31.1668C24.4355 31.1668 25.6667 29.9356 25.6667 28.4168V26.5835C25.6667 25.0647 24.4355 23.8335 22.9167 23.8335C21.3979 23.8335 20.1667 25.0647 20.1667 26.5835Z" fill="white" fill-opacity="0.75"/>
<path d="M12.8333 10.0835C12.8333 9.13041 12.3398 8.24528 11.529 7.74421C10.7183 7.24314 9.70592 7.19759 8.85345 7.62382L5.18678 9.45716C3.82834 10.1364 3.27772 11.7882 3.95694 13.1467C4.58472 14.4022 6.04337 14.9677 7.33328 14.5099V31.3233C6.26519 31.7008 5.49995 32.7195 5.49995 33.9168C5.49995 35.4356 6.73117 36.6668 8.24995 36.6668H11.9166C13.4354 36.6668 14.6666 35.4356 14.6666 33.9168C14.6666 32.7195 13.9014 31.7008 12.8333 31.3233V10.0835Z" fill="white" fill-opacity="0.75"/>
<path d="M40.3334 15.5835C40.3334 14.0647 39.1021 12.8335 37.5834 12.8335C36.0646 12.8335 34.8334 14.0647 34.8334 15.5835V16.5002H33.9167C32.3979 16.5002 31.1667 17.7314 31.1667 19.2502C31.1667 20.7689 32.3979 22.0002 33.9167 22.0002H34.8334V22.9168C34.8334 24.4356 36.0646 25.6668 37.5834 25.6668C39.1021 25.6668 40.3334 24.4356 40.3334 22.9168V22.0002H41.25C42.7688 22.0002 44 20.7689 44 19.2502C44 17.7314 42.7688 16.5002 41.25 16.5002H40.3334V15.5835Z" fill="white" fill-opacity="0.75"/>
</svg>
