<svg width="44" height="44" viewBox="0 0 44 44" fill="none" xmlns="http://www.w3.org/2000/svg">
<path d="M15.3514 15.1476C15.0803 17.7734 14.667 22.0779 14.667 23.9142C14.7027 26.0422 15.8578 27.0783 16.7727 27.3906C17.5019 27.6396 17.4581 27.5322 17.4556 28.3367L17.4148 41.3291C17.4122 42.1783 17.4132 42.1981 18.3274 42.1533C19.3358 42.104 20.846 41.7799 21.0727 40.3085C21.4583 37.8056 21.8195 30.8583 21.8448 28.7387C21.8516 28.1686 22.0074 28.0786 22.5597 28.0786C23.1119 28.0786 23.1248 28.1686 23.1316 28.7387C23.1569 30.8583 23.5741 37.8056 23.9597 40.3085C24.2019 41.8804 25.767 42.1429 26.7621 42.1599C27.6289 42.1747 27.478 41.9925 27.478 41.1857V26.5011C27.478 25.6367 27.5084 25.5971 28.1389 25.0131C29.2729 23.9626 31.4404 21.6046 31.1384 19.1589C31.1384 17.2008 29.4813 12.6011 27.6201 11.7973C26.287 11.2216 24.6338 10.9817 22.9736 11.0001C21.3133 10.9817 18.7454 11.2216 17.4123 11.7973C15.5584 12.598 15.5454 13.268 15.3514 15.1476Z" fill="white" fill-opacity="0.75"/>
<path d="M26.3403 5.40755C26.3403 0.368912 19.1728 0.923436 19.7407 5.40755C20.3671 10.353 26.3403 10.51 26.3403 5.40755Z" fill="white" fill-opacity="0.75"/>
</svg>
