<svg width="44" height="44" viewBox="0 0 44 44" fill="none" xmlns="http://www.w3.org/2000/svg">
<path d="M22 5.67791C16.5 3.91149 20.1667 15.8807 16.5 15.8806C14.6667 15.8806 14.2848 12.4222 12.8182 12.4222C10.9848 12.4222 5.5 18.0413 5.5 25.1056C5.5 31.5537 9.16667 38.5 16.5 38.5C18.3333 38.5 19.2503 37.9178 18.2188 36.7935C13.0625 31.1735 14.4833 25.6805 16.4857 26.3235C19.069 27.1531 21.4987 31.214 23.5182 22.6084C24.0291 20.2805 25.3127 20.8988 27 22.6084C29.5328 25.1746 30.8564 30.696 26.0104 36.7935C25.2083 37.8027 26.5833 38.5 28.8177 38.5C33.6302 38.5 38.5 33.2903 38.5 25.1056C38.5 14.0974 27.5 7.44432 22 5.67791Z" fill="white" fill-opacity="0.75"/>
</svg>
