<svg width="44" height="44" viewBox="0 0 44 44" fill="none" xmlns="http://www.w3.org/2000/svg">
<path d="M8.41505 18.9226C8.55001 18.3673 8.69916 17.8049 8.86335 17.2466C9.41508 15.3707 10.0962 13.6872 10.8882 12.5112C11.7044 11.2993 12.3689 11.0002 12.8337 11.0002C13.8609 11.0002 14.3066 11.3991 15.204 12.2965C15.9199 13.0125 17.0807 13.0125 17.7967 12.2965C18.5126 11.5806 18.5126 10.4198 17.7967 9.7038L17.7487 9.6558C16.8134 8.71968 15.4284 7.3335 12.8337 7.3335C10.5485 7.3335 8.92131 8.86768 7.84688 10.463C6.74827 12.0943 5.93977 14.1921 5.34568 16.212C4.16034 20.2422 3.66703 24.5431 3.66699 25.6668C3.66699 25.754 3.67307 25.8397 3.68485 25.9237C3.67298 26.1398 3.66699 26.3597 3.66699 26.5835C3.66699 31.7023 6.79814 34.8335 11.917 34.8335C17.0358 34.8335 20.167 31.7023 20.167 26.5835C20.167 25.0979 19.9033 23.7798 19.4038 22.657C19.544 22.5477 19.6826 22.4587 19.841 22.3795C20.2133 22.1934 20.8333 22.0002 22.0003 22.0002C23.1674 22.0002 23.7874 22.1934 24.1596 22.3795C24.318 22.4587 24.4566 22.5477 24.5969 22.657C24.0974 23.7798 23.8337 25.0979 23.8337 26.5835C23.8337 31.7023 26.9648 34.8335 32.0837 34.8335C37.2025 34.8335 40.3337 31.7023 40.3337 26.5835C40.3337 26.3597 40.3277 26.1398 40.3158 25.9237C40.3276 25.8398 40.3337 25.754 40.3337 25.6668C40.3337 24.5431 39.8403 20.2422 38.655 16.212C38.0609 14.1921 37.2524 12.0943 36.1538 10.463C35.0793 8.86768 33.4522 7.3335 31.167 7.3335C28.5723 7.3335 27.1873 8.71967 26.2519 9.6558L26.204 9.7038C25.488 10.4198 25.488 11.5806 26.204 12.2965C26.9199 13.0125 28.0807 13.0125 28.7967 12.2965C29.6941 11.3991 30.1397 11.0002 31.167 11.0002C31.6318 11.0002 32.2963 11.2993 33.1125 12.5112C33.9045 13.6873 34.5856 15.3707 35.1373 17.2466C35.3015 17.8049 35.4507 18.3673 35.5856 18.9226C34.5595 18.5362 33.3859 18.3335 32.0837 18.3335C30.0036 18.3335 28.2517 18.8505 26.9048 19.8079C26.5927 19.5608 26.2281 19.3143 25.7994 19.1C24.7966 18.5986 23.5833 18.3335 22.0003 18.3335C20.4174 18.3335 19.204 18.5986 18.2013 19.1C17.7726 19.3143 17.4079 19.5608 17.0959 19.8079C15.749 18.8505 13.9971 18.3335 11.917 18.3335C10.6148 18.3335 9.44117 18.5361 8.41505 18.9226Z" fill="white" fill-opacity="0.75"/>
</svg>
