<svg width="25" height="24" viewBox="0 0 25 24" fill="none" xmlns="http://www.w3.org/2000/svg">
<path d="M11.7051 15.2477L11.7052 15.2478C11.8721 15.4065 12.1038 15.4999 12.3504 15.5L11.7051 15.2477ZM11.7051 15.2477L6.10511 9.92528L6.10516 9.92522M11.7051 15.2477L6.10516 9.92522M6.10516 9.92522L6.09878 9.91936M6.10516 9.92522L6.09878 9.91936M6.09878 9.91936C6.01383 9.84138 5.94757 9.74951 5.90254 9.64986C5.85753 9.55029 5.83426 9.44421 5.83328 9.3376C5.83231 9.23099 5.85364 9.12462 5.89676 9.02445C5.93991 8.9242 6.00438 8.83139 6.08776 8.75215C6.17119 8.67285 6.2718 8.60885 6.38433 8.56509C6.49689 8.52132 6.61832 8.49902 6.74129 8.50003C6.86426 8.50105 6.98519 8.52535 7.09683 8.57093C7.20843 8.6165 7.30771 8.68207 7.38955 8.7626L7.3895 8.76266M6.09878 9.91936L7.3895 8.76266M7.3895 8.76266L7.3958 8.76864M7.3895 8.76266L7.3958 8.76864M7.3958 8.76864L12.006 13.1503L12.3505 13.4777M7.3958 8.76864L12.3505 13.4777M12.3505 13.4777L12.6949 13.1503M12.3505 13.4777L12.6949 13.1503M12.6949 13.1503L17.3016 8.77197M12.6949 13.1503L17.3016 8.77197M17.3016 8.77197C17.4696 8.61909 17.6988 8.53073 17.9413 8.53274C18.1851 8.53475 18.4136 8.62789 18.5787 8.78485C18.7431 8.94103 18.8313 9.14683 18.8332 9.35632C18.8351 9.56459 18.7517 9.77038 18.5923 9.92861L12.9958 15.2477L12.9957 15.2478C12.8288 15.4065 12.5971 15.4999 12.3506 15.5L17.3016 8.77197Z" fill="#DBDBDB" stroke="#DBDBDB"/>
</svg>
