<svg width="32" height="32" viewBox="0 0 32 32" fill="none" xmlns="http://www.w3.org/2000/svg">
<path d="M23.8565 20.0852C24.7949 18.4972 25.3333 16.6448 25.3333 14.6667C25.3333 8.77563 20.5577 4 14.6667 4C8.77563 4 4 8.77563 4 14.6667C4 20.5577 8.77563 25.3333 14.6667 25.3333C16.6448 25.3333 18.4973 24.7948 20.0853 23.8565L23.4478 27.2189C24.4892 28.2603 26.1776 28.2603 27.219 27.2189C28.2604 26.1775 28.2604 24.4891 27.219 23.4477L23.8565 20.0852ZM14.6667 21.3333C10.9848 21.3333 8 18.3486 8 14.6667C8 10.9848 10.9848 8 14.6667 8C18.3486 8 21.3333 10.9848 21.3333 14.6667C21.3333 18.3486 18.3486 21.3333 14.6667 21.3333Z" fill="white" fill-opacity="0.3"/>
</svg>
