<svg width="24" height="24" viewBox="0 0 24 24" fill="none" xmlns="http://www.w3.org/2000/svg">
<g id="ic_m_trash_bin_filled">
<g id="Union">
<path d="M8.2652 6.04222L8.5955 5.05132C9.00384 3.82629 10.1503 3 11.4415 3H12.5585C13.8498 3 14.9962 3.82629 15.4046 5.05132L15.7349 6.04222C18.4551 6.14952 20 6.52948 20 7.875C20 9 19.5 9 18.5 9H5.5C4.5 9 4 9 4 7.875C4 6.52947 5.54492 6.14951 8.2652 6.04222ZM10.4929 5.68377L10.3866 6.00268C10.898 6 11.4363 6 12 6C12.5637 6 13.102 6 13.6135 6.00269L13.5072 5.68377C13.3711 5.27543 12.9889 5 12.5585 5H11.4415C11.0111 5 10.629 5.27543 10.4929 5.68377Z" fill="white" fill-opacity="0.9"/>
<path d="M5 11C5 10.28 5.5 10 6 10H18C18.5 10 19 10.2812 19 11C19 19.5 19 21 12 21C5 21 5 19.5 5 11ZM10 13C9.44772 13 9 13.4477 9 14V16C9 16.5523 9.44772 17 10 17C10.5523 17 11 16.5523 11 16V14C11 13.4477 10.5523 13 10 13ZM15 14C15 13.4477 14.5523 13 14 13C13.4477 13 13 13.4477 13 14V16C13 16.5523 13.4477 17 14 17C14.5523 17 15 16.5523 15 16V14Z" fill="white" fill-opacity="0.9"/>
</g>
</g>
</svg>
