<svg width="83" height="20" viewBox="0 0 83 20" fill="none" xmlns="http://www.w3.org/2000/svg">
<rect width="83" height="20" rx="10" fill="#252328"/>
<rect width="83" height="20" rx="10" fill="url(#paint0_linear_101_453)"/>
<path d="M12 12C14.2092 12 16 10.2091 16 8C16 5.79086 14.2092 4 12 4C9.79088 4 8.00002 5.79086 8.00002 8C8.00002 10.2091 9.79088 12 12 12Z" fill="white" fill-opacity="0.9"/>
<path d="M13.8297 15.7024L12.0738 12.666C13.5112 12.6437 14.7909 11.9716 15.632 10.9304C16.0401 10.4252 16.1857 10.6616 16.3461 10.9221L16.3512 10.9304C16.4661 11.117 16.5519 11.2563 16.5945 11.3301L17.8449 13.4928C18.2042 14.1144 17.8859 14.3183 17.436 14.2966L16.5229 14.2506C16.4272 14.2458 16.342 14.2403 16.2658 14.2354C15.6896 14.1983 15.6169 14.1936 15.2615 14.7514L14.7367 15.5752C14.4122 16.0847 14.044 16.0728 13.8297 15.7024Z" fill="white" fill-opacity="0.9"/>
<path d="M7.59769 11.1297L7.71544 10.9287C7.86931 10.6657 7.98896 10.4612 8.36804 10.9304C9.22353 11.9893 10.5327 12.6666 12 12.6666L12.0018 12.6666C11.775 13.0699 10.5344 15.2724 10.2452 15.7024C9.96175 16.1238 9.65577 16.0737 9.4192 15.7024L8.8134 14.7514C8.46104 14.1983 8.35974 14.2042 7.74883 14.2397C7.68853 14.2432 7.62296 14.2471 7.55199 14.2506L6.63891 14.2966C6.18908 14.3183 5.7919 14.2506 6.12178 13.6802L7.4805 11.3301C7.50606 11.2859 7.54612 11.2176 7.59769 11.1297Z" fill="white" fill-opacity="0.9"/>
<path d="M24.38 14V7.95L24.75 8.32H22.15V7H28.22V8.32H25.62L25.98 7.95V14H24.38ZM28.0956 14L31.2156 7H32.8156L35.9456 14H34.2456L31.6856 7.82H32.3256L29.7556 14H28.0956ZM29.6556 12.5L30.0856 11.27H33.6856L34.1256 12.5H29.6556ZM41.6739 7H43.2939V14H41.6739V7ZM38.4939 14H36.8739V7H38.4939V14ZM41.7939 11.13H38.3739V9.76H41.7939V11.13ZM45.0477 14V7H46.6577V12.68H49.7777V7H51.3877V14H45.0477ZM50.8977 15.48V13.62L51.2477 14H49.7777V12.68H52.3877V15.48H50.8977ZM53.4559 14V7H59.8359V14H58.2259V7.95L58.5959 8.32H54.6959L55.0659 7.95V14H53.4559ZM64.9212 14.12C64.3678 14.12 63.8545 14.03 63.3812 13.85C62.9145 13.67 62.5078 13.4167 62.1612 13.09C61.8212 12.7633 61.5545 12.38 61.3612 11.94C61.1745 11.5 61.0812 11.02 61.0812 10.5C61.0812 9.98 61.1745 9.5 61.3612 9.06C61.5545 8.62 61.8245 8.23667 62.1712 7.91C62.5178 7.58333 62.9245 7.33 63.3912 7.15C63.8578 6.97 64.3645 6.88 64.9112 6.88C65.4645 6.88 65.9712 6.97 66.4312 7.15C66.8978 7.33 67.3012 7.58333 67.6412 7.91C67.9878 8.23667 68.2578 8.62 68.4512 9.06C68.6445 9.49333 68.7412 9.97333 68.7412 10.5C68.7412 11.02 68.6445 11.5033 68.4512 11.95C68.2578 12.39 67.9878 12.7733 67.6412 13.1C67.3012 13.42 66.8978 13.67 66.4312 13.85C65.9712 14.03 65.4678 14.12 64.9212 14.12ZM64.9112 12.74C65.2245 12.74 65.5112 12.6867 65.7712 12.58C66.0378 12.4733 66.2712 12.32 66.4712 12.12C66.6712 11.92 66.8245 11.6833 66.9312 11.41C67.0445 11.1367 67.1012 10.8333 67.1012 10.5C67.1012 10.1667 67.0445 9.86333 66.9312 9.59C66.8245 9.31667 66.6712 9.08 66.4712 8.88C66.2778 8.68 66.0478 8.52667 65.7812 8.42C65.5145 8.31333 65.2245 8.26 64.9112 8.26C64.5978 8.26 64.3078 8.31333 64.0412 8.42C63.7812 8.52667 63.5512 8.68 63.3512 8.88C63.1512 9.08 62.9945 9.31667 62.8812 9.59C62.7745 9.86333 62.7212 10.1667 62.7212 10.5C62.7212 10.8267 62.7745 11.13 62.8812 11.41C62.9945 11.6833 63.1478 11.92 63.3412 12.12C63.5412 12.32 63.7745 12.4733 64.0412 12.58C64.3078 12.6867 64.5978 12.74 64.9112 12.74ZM69.8638 14.11C69.7438 14.11 69.6172 14.1 69.4838 14.08C69.3572 14.06 69.2172 14.0333 69.0638 14L69.1638 12.63C69.2572 12.6567 69.3538 12.67 69.4538 12.67C69.7272 12.67 69.9405 12.56 70.0938 12.34C70.2472 12.1133 70.3572 11.79 70.4238 11.37C70.4905 10.95 70.5338 10.44 70.5538 9.84L70.6538 7H76.0338V14H74.4338V7.95L74.8038 8.32H71.7138L72.0438 7.93L71.9838 9.78C71.9638 10.4667 71.9172 11.0767 71.8438 11.61C71.7705 12.1433 71.6572 12.5967 71.5038 12.97C71.3505 13.3433 71.1405 13.6267 70.8738 13.82C70.6072 14.0133 70.2705 14.11 69.8638 14.11Z" fill="white" fill-opacity="0.95"/>
<defs>
<linearGradient id="paint0_linear_101_453" x1="30.2284" y1="22.2222" x2="40.5172" y2="-7.42992" gradientUnits="userSpaceOnUse">
<stop stop-color="#F11010"/>
<stop offset="1" stop-color="#FC8181" stop-opacity="0.9"/>
</linearGradient>
</defs>
</svg>
