<svg width="102" height="20" viewBox="0 0 102 20" fill="none" xmlns="http://www.w3.org/2000/svg">
<rect width="102" height="20" rx="10" fill="#252328"/>
<rect width="102" height="20" rx="10" fill="url(#paint0_linear_101_455)"/>
<path d="M12 12C14.2092 12 16 10.2091 16 8C16 5.79086 14.2092 4 12 4C9.79088 4 8.00002 5.79086 8.00002 8C8.00002 10.2091 9.79088 12 12 12Z" fill="white" fill-opacity="0.9"/>
<path d="M13.8297 15.7024L12.0738 12.666C13.5112 12.6437 14.7909 11.9716 15.632 10.9304C16.0401 10.4252 16.1857 10.6616 16.3461 10.9221L16.3512 10.9304C16.4661 11.117 16.5519 11.2563 16.5945 11.3301L17.8449 13.4928C18.2042 14.1144 17.8859 14.3183 17.436 14.2966L16.5229 14.2506C16.4272 14.2458 16.342 14.2403 16.2658 14.2354C15.6896 14.1983 15.6169 14.1936 15.2615 14.7514L14.7367 15.5752C14.4122 16.0847 14.044 16.0728 13.8297 15.7024Z" fill="white" fill-opacity="0.9"/>
<path d="M7.59769 11.1297L7.71544 10.9287C7.86931 10.6657 7.98896 10.4612 8.36804 10.9304C9.22353 11.9893 10.5327 12.6666 12 12.6666L12.0018 12.6666C11.775 13.0699 10.5344 15.2724 10.2452 15.7024C9.96175 16.1238 9.65577 16.0737 9.4192 15.7024L8.8134 14.7514C8.46104 14.1983 8.35974 14.2042 7.74883 14.2397C7.68853 14.2432 7.62296 14.2471 7.55199 14.2506L6.63891 14.2966C6.18908 14.3183 5.7919 14.2506 6.12178 13.6802L7.4805 11.3301C7.50606 11.2859 7.54612 11.2176 7.59769 11.1297Z" fill="white" fill-opacity="0.9"/>
<path d="M22.87 14V7H25.9C26.5267 7 27.0667 7.10333 27.52 7.31C27.9733 7.51 28.3233 7.8 28.57 8.18C28.8167 8.56 28.94 9.01333 28.94 9.54C28.94 10.06 28.8167 10.51 28.57 10.89C28.3233 11.27 27.9733 11.5633 27.52 11.77C27.0667 11.97 26.5267 12.07 25.9 12.07H23.77L24.49 11.34V14H22.87ZM24.49 11.52L23.77 10.75H25.81C26.31 10.75 26.6833 10.6433 26.93 10.43C27.1767 10.2167 27.3 9.92 27.3 9.54C27.3 9.15333 27.1767 8.85333 26.93 8.64C26.6833 8.42667 26.31 8.32 25.81 8.32H23.77L24.49 7.55V11.52ZM31.4987 9.82H34.8687V11.08H31.4987V9.82ZM31.6187 12.7H35.4287V14H30.0087V7H35.2987V8.3H31.6187V12.7ZM36.7372 14V7H43.1172V14H41.5072V7.95L41.8772 8.32H37.9772L38.3472 7.95V14H36.7372ZM47.6845 14V7H49.0245L52.0045 11.94H51.2945L54.2245 7H55.5645L55.5745 14H54.0545L54.0445 9.33H54.3345L51.9845 13.26H51.2645L48.8645 9.33H49.2045V14H47.6845ZM57.5534 12.68C57.94 12.7933 58.2634 12.8267 58.5234 12.78C58.79 12.7267 59.0267 12.54 59.2334 12.22L59.5734 11.71L59.7234 11.54L62.0434 7H63.6334L60.6534 12.54C60.3867 13.04 60.07 13.4233 59.7034 13.69C59.3434 13.9567 58.9467 14.1067 58.5134 14.14C58.08 14.18 57.63 14.1033 57.1634 13.91L57.5534 12.68ZM59.6934 12.89L56.5334 7H58.2634L60.5834 11.7L59.6934 12.89ZM63.822 13.38L64.322 12.22C64.622 12.4 64.942 12.54 65.282 12.64C65.6287 12.7333 65.9654 12.7867 66.292 12.8C66.6254 12.8067 66.9254 12.7733 67.192 12.7C67.4654 12.6267 67.682 12.5167 67.842 12.37C68.0087 12.2233 68.092 12.0367 68.092 11.81C68.092 11.5433 67.982 11.3467 67.762 11.22C67.542 11.0867 67.2487 11.02 66.882 11.02H65.172V9.8H66.762C67.0887 9.8 67.342 9.73333 67.522 9.6C67.7087 9.46667 67.802 9.28333 67.802 9.05C67.802 8.85 67.7354 8.69 67.602 8.57C67.4687 8.44333 67.2854 8.35 67.052 8.29C66.8254 8.23 66.5687 8.20333 66.282 8.21C65.9954 8.21667 65.6987 8.26333 65.392 8.35C65.0854 8.43667 64.792 8.55667 64.512 8.71L64.022 7.46C64.4754 7.22667 64.952 7.06667 65.452 6.98C65.9587 6.88667 66.4454 6.86333 66.912 6.91C67.3854 6.95 67.812 7.05667 68.192 7.23C68.572 7.39667 68.8754 7.61667 69.102 7.89C69.3287 8.16333 69.442 8.48667 69.442 8.86C69.442 9.19333 69.3554 9.49 69.182 9.75C69.0087 10.01 68.7654 10.21 68.452 10.35C68.1454 10.49 67.792 10.56 67.392 10.56L67.432 10.2C67.8987 10.2 68.302 10.28 68.642 10.44C68.9887 10.5933 69.2554 10.81 69.442 11.09C69.6354 11.3633 69.732 11.68 69.732 12.04C69.732 12.3733 69.642 12.6733 69.462 12.94C69.2887 13.2 69.0487 13.42 68.742 13.6C68.4354 13.78 68.0854 13.9133 67.692 14C67.2987 14.0867 66.8787 14.1233 66.432 14.11C65.992 14.0967 65.5487 14.0333 65.102 13.92C64.6554 13.8 64.2287 13.62 63.822 13.38ZM74.4045 9.3C75.2512 9.3 75.9045 9.49 76.3645 9.87C76.8245 10.2433 77.0545 10.8067 77.0545 11.56C77.0545 12.36 76.7979 12.9667 76.2845 13.38C75.7779 13.7933 75.0745 14 74.1745 14H71.0145V7H72.6245V9.3H74.4045ZM74.0845 12.8C74.4979 12.8 74.8245 12.6967 75.0645 12.49C75.3045 12.2833 75.4245 11.9833 75.4245 11.59C75.4245 11.2033 75.3045 10.9267 75.0645 10.76C74.8312 10.5867 74.5045 10.5 74.0845 10.5H72.6245V12.8H74.0845ZM77.9445 14V7H79.5545V14H77.9445ZM85.8277 14L83.6477 10.63L84.9577 9.84L87.6677 14H85.8277ZM81.2777 14V7H82.8877V14H81.2777ZM82.4177 11.18V9.83H84.8577V11.18H82.4177ZM85.1077 10.68L83.6177 10.5L85.8877 7H87.5977L85.1077 10.68ZM87.4902 14L90.6102 7H92.2102L95.3402 14H93.6402L91.0802 7.82H91.7202L89.1502 14H87.4902ZM89.0502 12.5L89.4802 11.27H93.0802L93.5202 12.5H89.0502Z" fill="white" fill-opacity="0.95"/>
<defs>
<linearGradient id="paint0_linear_101_455" x1="37.1481" y1="22.2222" x2="47.1853" y2="-6.96659" gradientUnits="userSpaceOnUse">
<stop stop-color="#017E24"/>
<stop offset="1" stop-color="#A1FC81" stop-opacity="0.9"/>
</linearGradient>
</defs>
</svg>
