<svg width="77" height="20" viewBox="0 0 77 20" fill="none" xmlns="http://www.w3.org/2000/svg">
<rect width="77" height="20" rx="10" fill="#252328"/>
<rect width="77" height="20" rx="10" fill="url(#paint0_linear_101_454)"/>
<path d="M12 12C14.2091 12 16 10.2091 16 8C16 5.79086 14.2091 4 12 4C9.79082 4 7.99996 5.79086 7.99996 8C7.99996 10.2091 9.79082 12 12 12Z" fill="white" fill-opacity="0.9"/>
<path d="M13.8297 15.7024L12.0738 12.666C13.5111 12.6437 14.7908 11.9716 15.6319 10.9304C16.0401 10.4252 16.1856 10.6616 16.346 10.9221L16.3511 10.9304C16.466 11.117 16.5518 11.2563 16.5945 11.3301L17.8448 13.4928C18.2041 14.1144 17.8859 14.3183 17.4359 14.2966L16.5229 14.2506C16.4271 14.2458 16.342 14.2403 16.2657 14.2354C15.6896 14.1983 15.6168 14.1936 15.2614 14.7514L14.7367 15.5752C14.4121 16.0847 14.0439 16.0728 13.8297 15.7024Z" fill="white" fill-opacity="0.9"/>
<path d="M7.59763 11.1297L7.71538 10.9287C7.86925 10.6657 7.9889 10.4612 8.36798 10.9304C9.22347 11.9893 10.5326 12.6666 12 12.6666L12.0017 12.6666C11.7749 13.0699 10.5343 15.2724 10.2451 15.7024C9.96168 16.1238 9.65571 16.0737 9.41914 15.7024L8.81334 14.7514C8.46098 14.1983 8.35968 14.2042 7.74877 14.2397C7.68847 14.2432 7.62289 14.2471 7.55193 14.2506L6.63885 14.2966C6.18902 14.3183 5.79184 14.2506 6.12172 13.6802L7.48044 11.3301C7.506 11.2859 7.54606 11.2176 7.59763 11.1297Z" fill="white" fill-opacity="0.9"/>
<path d="M22.94 14.11C22.82 14.11 22.6933 14.1 22.56 14.08C22.4333 14.06 22.2933 14.0333 22.14 14L22.24 12.63C22.3333 12.6567 22.43 12.67 22.53 12.67C22.8033 12.67 23.0167 12.56 23.17 12.34C23.3233 12.1133 23.4333 11.79 23.5 11.37C23.5667 10.95 23.61 10.44 23.63 9.84L23.73 7H29.11V14H27.51V7.95L27.88 8.32H24.79L25.12 7.93L25.06 9.78C25.04 10.4667 24.9933 11.0767 24.92 11.61C24.8467 12.1433 24.7333 12.5967 24.58 12.97C24.4267 13.3433 24.2167 13.6267 23.95 13.82C23.6833 14.0133 23.3467 14.11 22.94 14.11ZM31.0983 12.68C31.4849 12.7933 31.8083 12.8267 32.0683 12.78C32.3349 12.7267 32.5716 12.54 32.7783 12.22L33.1183 11.71L33.2683 11.54L35.5883 7H37.1783L34.1983 12.54C33.9316 13.04 33.6149 13.4233 33.2483 13.69C32.8883 13.9567 32.4916 14.1067 32.0583 14.14C31.6249 14.18 31.1749 14.1033 30.7083 13.91L31.0983 12.68ZM33.2383 12.89L30.0783 7H31.8083L34.1283 11.7L33.2383 12.89ZM42.4746 11.39C42.1279 11.53 41.7946 11.6367 41.4746 11.71C41.1546 11.7767 40.8479 11.81 40.5546 11.81C39.6146 11.81 38.8946 11.5867 38.3946 11.14C37.8946 10.6867 37.6446 10.0367 37.6446 9.19V7H39.2446V9.01C39.2446 9.49 39.3746 9.85333 39.6346 10.1C39.8946 10.34 40.2646 10.46 40.7446 10.46C41.0513 10.46 41.3479 10.4267 41.6346 10.36C41.9213 10.2867 42.1879 10.1833 42.4346 10.05L42.4746 11.39ZM42.2446 14V7H43.8446V14H42.2446ZM49.7648 12.68L49.4048 13.05V7H51.0148V13.05L50.6348 12.68H53.5948L53.2148 13.05V7H54.8248V14H45.5848V7H47.1948V13.05L46.8248 12.68H49.7648ZM56.5614 14V7H58.1714V11.56L61.5114 7H63.0314V14H61.4314V9.45L58.0914 14H56.5614ZM66.2643 9.82H69.6343V11.08H66.2643V9.82ZM66.3843 12.7H70.1943V14H64.7743V7H70.0643V8.3H66.3843V12.7Z" fill="white" fill-opacity="0.95"/>
<defs>
<linearGradient id="paint0_linear_101_454" x1="28.0432" y1="22.2222" x2="38.9441" y2="-6.92281" gradientUnits="userSpaceOnUse">
<stop stop-color="#B710F1"/>
<stop offset="1" stop-color="#FC8197" stop-opacity="0.9"/>
</linearGradient>
</defs>
</svg>
